<svg width="512" height="512" version="1.1" xmlns="http://www.w3.org/2000/svg" desc="Created with imagetracer.js version 1.2.6" ><path fill="rgb(0,0,0)" stroke="rgb(0,0,0)" stroke-width="1" opacity="0" d="M 0 0 L 512 0 L 512 322.5 L 511 322.5 Q 506.8 301.2 491.5 291 L 476.5 283 L 468.5 281 L 461 281 L 460 266.5 L 454 247.5 Q 445.3 227.7 430.5 214 Q 428.3 214.8 429 212.5 L 425 192.5 L 418 173.5 Q 406.8 150.8 388.5 135 Q 372.9 121.1 351.5 113 L 327.5 107 L 301.5 106 L 300.5 107 L 286.5 108 L 263.5 115 Q 244.9 122.9 231.5 136 Q 223 118 208.5 106 Q 194.1 93.9 173.5 88 L 162.5 86 L 138.5 86 Q 102.3 92.8 83 116.5 Q 73 128 67 143.5 L 64 153.5 L 62 169 Q 37 170.7 26 187.5 Q 15.1 199.1 17 223.5 Q 20.8 242.8 33.5 253 L 40 257.5 Q 25.9 262.9 17 273.5 L 5 291.5 L 0.5 308 L 0 0 Z M 307 32 L 304 33 L 302 37 L 302 69 L 304 72 L 307 73 L 316 72 L 318 69 L 318 37 L 317 35 Q 314 31 307 32 Z M 217 56 L 214 57 L 209 63 L 209 67 L 223 92 L 228 95 Q 236 96 238 91 L 238 84 L 225 61 Q 223 56 217 56 Z M 402 56 L 399 57 L 382 84 L 383 92 L 388 95 L 395 94 L 398 91 L 411 68 L 411 62 L 409 58 L 402 56 Z M 470 124 L 446 137 L 440 145 Q 440 151 445 153 L 453 153 L 474 141 L 479 135 Q 480 128 477 126 L 470 124 Z M 468 217 L 466 218 Q 461 220 462 229 L 467 233 L 500 233 L 504 228 Q 505 222 502 220 L 499 217 L 468 217 Z " /><path fill="rgb(0,0,0)" stroke="rgb(0,0,0)" stroke-width="1" opacity="0" d="M 0.5 331 Q 5.4 358.1 23.5 372 Q 34.8 381.7 51.5 386 L 56.5 387 L 82 387.5 L 80 391.5 L 79 402.5 L 78 405 L 67.5 406 Q 56.5 410 50 418.5 L 43 431.5 L 42 449.5 Q 45.5 466 57.5 474 Q 64.1 479.4 74.5 481 L 423.5 481 Q 444.6 477.6 456 464.5 Q 465.2 455.2 469 440.5 L 470 435.5 L 470 420.5 Q 466.3 398.7 452 387.5 L 468.5 387 L 481.5 383 Q 494.1 377.1 502 366.5 Q 509.6 358.1 511.5 344 L 512 512 L 0 512 L 0.5 331 Z " /><path fill="rgb(247,232,143)" stroke="rgb(247,232,143)" stroke-width="1" opacity="0.984313725490196" d="M 307.5 32 Q 315.1 30.9 317 35.5 L 318 38.5 L 318 66.5 L 314.5 72 L 307.5 73 L 304 71 L 302 66.5 L 302 38.5 L 305.5 33 L 307.5 32 Z " /><path fill="rgb(247,232,143)" stroke="rgb(247,232,143)" stroke-width="1" opacity="0.984313725490196" d="M 214.5 57 Q 222.1 55.9 224 60.5 L 237 82.5 L 238 88.5 L 233.5 94 Q 224.8 95.8 223 90.5 L 210 67.5 L 210 61.5 L 214.5 57 Z " /><path fill="rgb(247,232,143)" stroke="rgb(247,232,143)" stroke-width="1" opacity="0.984313725490196" d="M 400.5 57 Q 407 56 409 59.5 L 411 64.5 L 399 87.5 L 393.5 94 Q 384.8 95.8 383 90.5 L 382 85.5 L 394 63.5 L 398.5 58 L 400.5 57 Z " /><path fill="rgb(247,232,143)" stroke="rgb(247,232,143)" stroke-width="1" opacity="0.984313725490196" d="M 467.5 125 Q 474.8 123.8 477 127.5 L 478 135.5 L 477 138 L 450.5 153 L 446.5 153 L 442 149.5 L 441 142.5 L 443.5 139 L 467.5 125 Z " /><path fill="rgb(247,232,143)" stroke="rgb(247,232,143)" stroke-width="1" opacity="0.984313725490196" d="M 470.5 217 L 495.5 217 L 502 220.5 L 503 228.5 L 497.5 233 L 467.5 233 L 464 231 L 462 223.5 L 466.5 218 L 470.5 217 Z " /><path fill="rgb(247,232,143)" stroke="rgb(247,232,143)" stroke-width="1" opacity="0.984313725490196" d="M 383.5 304 L 384.5 306 L 383.5 304 Z " /><path fill="rgb(247,232,143)" stroke="rgb(247,232,143)" stroke-width="1" opacity="0.984313725490196" d="M 397.5 305 L 395.5 308 L 397.5 305 Z " /><path fill="rgb(207,214,186)" stroke="rgb(207,214,186)" stroke-width="1" opacity="1" d="M 218.5 149 L 217.5 151 L 218.5 149 Z " /><path fill="rgb(207,214,186)" stroke="rgb(207,214,186)" stroke-width="1" opacity="1" d="M 218.5 206 L 219.5 208 L 218.5 206 Z " /><path fill="rgb(207,214,186)" stroke="rgb(207,214,186)" stroke-width="1" opacity="1" d="M 223.5 210 L 224.5 212 L 223.5 210 Z " /><path fill="rgb(207,214,186)" stroke="rgb(207,214,186)" stroke-width="1" opacity="1" d="M 428.5 215 L 429 224.5 L 428 224.5 L 428.5 215 Z " /><path fill="rgb(207,214,186)" stroke="rgb(207,214,186)" stroke-width="1" opacity="1" d="M 235.5 222 L 236.5 224 L 235.5 222 Z " /><path fill="rgb(207,214,186)" stroke="rgb(207,214,186)" stroke-width="1" opacity="1" d="M 428.5 226 L 429 234.5 L 428 234.5 L 428.5 226 Z " /><path fill="rgb(207,214,186)" stroke="rgb(207,214,186)" stroke-width="1" opacity="1" d="M 239.5 227 L 240.5 229 L 239.5 227 Z " /><path fill="rgb(207,214,186)" stroke="rgb(207,214,186)" stroke-width="1" opacity="1" d="M 427.5 240 L 428 243.5 L 427 243.5 L 427.5 240 Z " /><path fill="rgb(207,214,186)" stroke="rgb(207,214,186)" stroke-width="1" opacity="1" d="M 426.5 247 L 427 249.5 L 426 249.5 L 426.5 247 Z " /><path fill="rgb(207,214,186)" stroke="rgb(207,214,186)" stroke-width="1" opacity="1" d="M 258.5 272 L 259 274.5 L 258 274.5 L 258.5 272 Z " /><path fill="rgb(207,214,186)" stroke="rgb(207,214,186)" stroke-width="1" opacity="1" d="M 262.5 281 L 266 281.5 L 262.5 282 L 262.5 281 Z " /><path fill="rgb(207,214,186)" stroke="rgb(207,214,186)" stroke-width="1" opacity="1" d="M 325.5 281 L 328 281.5 L 325.5 282 L 325.5 281 Z " /><path fill="rgb(207,214,186)" stroke="rgb(207,214,186)" stroke-width="1" opacity="1" d="M 409.5 290 L 408.5 292 L 409.5 290 Z " /><path fill="rgb(207,214,186)" stroke="rgb(207,214,186)" stroke-width="1" opacity="1" d="M 404.5 297 L 403.5 299 L 404.5 297 Z " /><path fill="rgb(207,214,186)" stroke="rgb(207,214,186)" stroke-width="1" opacity="1" d="M 400.5 302 L 398.5 305 L 400.5 302 Z " /><path fill="rgb(207,214,186)" stroke="rgb(207,214,186)" stroke-width="1" opacity="1" d="M 385.5 306 L 386.5 308 L 385.5 306 Z " /><path fill="rgb(164,213,220)" stroke="rgb(164,213,220)" stroke-width="1" opacity="0.996078431372549" d="M 148.5 188 L 171.5 188 L 195.5 194 Q 219.5 203.5 235 221.5 Q 255.6 243.2 259 281 L 272.5 283 L 282 287.5 Q 259.8 296.8 245 313.5 L 239.5 321 L 226.5 313 L 216.5 310 L 209.5 310 L 208 308.5 L 206 291.5 L 200 274.5 Q 190.9 255.6 176.5 242 Q 162 228.5 141.5 221 L 118.5 216 L 98.5 216 L 89.5 218 L 95.5 211 Q 106.8 201.3 121.5 195 L 129.5 192 L 148.5 188 Z " /><path fill="rgb(164,213,220)" stroke="rgb(164,213,220)" stroke-width="1" opacity="0.996078431372549" d="M 428.5 214 Q 444.1 227.4 453 247.5 L 458 261.5 L 460 271.5 L 460 278.5 L 461 281 L 473.5 283 L 485.5 288 L 501 301.5 Q 512.2 314.3 512 338.5 L 510 348.5 L 505 360.5 L 492.5 375 Q 484.8 381.8 473.5 385 L 455.5 387 L 456 385.5 L 461 369.5 L 461 355.5 Q 456.8 332.8 441.5 321 L 425.5 312 L 417.5 310 L 410 310 L 408 292.5 Q 419.4 277.9 425 257.5 L 429 234.5 L 429 215.5 L 428.5 214 Z " /><path fill="rgb(248,188,63)" stroke="rgb(248,188,63)" stroke-width="1" opacity="0.996078431372549" d="M 307.5 106 L 331.5 108 L 355.5 115 Q 383.8 127.2 402 149.5 Q 417.3 167.7 425 193.5 L 428 207.5 L 428 239.5 L 425 256.5 L 418 275.5 Q 408 296 392.5 311 L 390.5 311 L 372.5 296 L 354.5 287 L 341.5 283 L 330.5 282 L 329.5 281 L 309.5 281 L 281.5 287 Q 273.1 280.6 259 281 L 259 272.5 L 257 262.5 L 248 239.5 Q 238 221.4 222.5 209 Q 210.9 199.6 196 193.5 Q 206.9 154.9 234.5 133 Q 249.4 120.4 269.5 113 L 288.5 108 L 306.5 107 L 307.5 106 Z " /><path fill="rgb(195,224,231)" stroke="rgb(195,224,231)" stroke-width="1" opacity="0.996078431372549" d="M 156.5 187 L 164 187.5 L 156.5 188 L 156.5 187 Z " /><path fill="rgb(195,224,231)" stroke="rgb(195,224,231)" stroke-width="1" opacity="0.996078431372549" d="M 145.5 188 L 148 188.5 L 145.5 189 L 145.5 188 Z " /><path fill="rgb(195,224,231)" stroke="rgb(195,224,231)" stroke-width="1" opacity="0.996078431372549" d="M 97.5 209 L 96.5 211 L 97.5 209 Z " /><path fill="rgb(195,224,231)" stroke="rgb(195,224,231)" stroke-width="1" opacity="0.996078431372549" d="M 90.5 215 L 89.5 217 L 90.5 215 Z " /><path fill="rgb(195,224,231)" stroke="rgb(195,224,231)" stroke-width="1" opacity="0.996078431372549" d="M 98.5 216 L 118.5 216 L 141.5 221 Q 166 230 182 247.5 Q 192.7 259.3 200 274.5 L 206 291.5 L 208 308.5 L 209.5 310 L 216.5 310 L 226.5 313 L 239 320 Q 230.8 331.3 226 346 L 211.5 347 L 196.5 353 L 193.5 353 L 187.5 348 L 165.5 339 Q 160.8 340.3 159.5 338 L 140.5 338 Q 108.9 343.9 93 365.5 Q 85.8 374.8 81.5 387 L 60.5 387 L 43.5 383 Q 26 376 15 362.5 Q 6.2 352.3 2 337.5 L 0 327.5 L 0 311.5 Q 5 283 23.5 268 L 41.5 257 L 56.5 253 L 65.5 253 L 68 250.5 Q 74.6 230.6 88.5 218 L 98.5 216 Z " /><path fill="rgb(195,224,231)" stroke="rgb(195,224,231)" stroke-width="1" opacity="0.996078431372549" d="M 407.5 294 L 410 310 Q 422.3 309.5 430.5 314 Q 442.2 319.8 450 329.5 L 459 346.5 L 461 355.5 L 461 369.5 L 459 378.5 L 454.5 387 L 450.5 387 L 436.5 378 L 426.5 375 L 419 375 Q 418.1 355.2 411 340.5 Q 403.4 324.1 392 311.5 L 407.5 294 Z " /><path fill="rgb(195,224,231)" stroke="rgb(195,224,231)" stroke-width="1" opacity="0.996078431372549" d="M 258.5 301 L 257.5 303 L 258.5 301 Z " /><path fill="rgb(195,224,231)" stroke="rgb(195,224,231)" stroke-width="1" opacity="0.996078431372549" d="M 252.5 306 L 245.5 314 L 252.5 306 Z " /><path fill="rgb(195,224,231)" stroke="rgb(195,224,231)" stroke-width="1" opacity="0.996078431372549" d="M 241.5 318 L 240.5 320 L 241.5 318 Z " /><path fill="rgb(221,233,237)" stroke="rgb(221,233,237)" stroke-width="1" opacity="0.996078431372549" d="M 145.5 86 L 157 86.5 L 145.5 87 L 145.5 86 Z " /><path fill="rgb(221,233,237)" stroke="rgb(221,233,237)" stroke-width="1" opacity="0.996078431372549" d="M 104.5 99 L 103.5 101 L 104.5 99 Z " /><path fill="rgb(221,233,237)" stroke="rgb(221,233,237)" stroke-width="1" opacity="0.996078431372549" d="M 197.5 99 L 198.5 101 L 197.5 99 Z " /><path fill="rgb(221,233,237)" stroke="rgb(221,233,237)" stroke-width="1" opacity="0.996078431372549" d="M 101.5 101 L 100.5 103 L 101.5 101 Z " /><path fill="rgb(221,233,237)" stroke="rgb(221,233,237)" stroke-width="1" opacity="0.996078431372549" d="M 200.5 101 L 201.5 103 L 200.5 101 Z " /><path fill="rgb(221,233,237)" stroke="rgb(221,233,237)" stroke-width="1" opacity="0.996078431372549" d="M 98.5 103 L 96.5 106 L 98.5 103 Z " /><path fill="rgb(221,233,237)" stroke="rgb(221,233,237)" stroke-width="1" opacity="0.996078431372549" d="M 204.5 104 L 205.5 106 L 204.5 104 Z " /><path fill="rgb(221,233,237)" stroke="rgb(221,233,237)" stroke-width="1" opacity="0.996078431372549" d="M 92.5 108 L 84.5 117 L 92.5 108 Z " /><path fill="rgb(221,233,237)" stroke="rgb(221,233,237)" stroke-width="1" opacity="0.996078431372549" d="M 209.5 108 L 217.5 117 L 209.5 108 Z " /><path fill="rgb(221,233,237)" stroke="rgb(221,233,237)" stroke-width="1" opacity="0.996078431372549" d="M 81.5 120 L 80.5 122 L 81.5 120 Z " /><path fill="rgb(221,233,237)" stroke="rgb(221,233,237)" stroke-width="1" opacity="0.996078431372549" d="M 220.5 120 L 221.5 122 L 220.5 120 Z " /><path fill="rgb(221,233,237)" stroke="rgb(221,233,237)" stroke-width="1" opacity="0.996078431372549" d="M 223.5 124 L 224.5 126 L 223.5 124 Z " /><path fill="rgb(221,233,237)" stroke="rgb(221,233,237)" stroke-width="1" opacity="0.996078431372549" d="M 449.5 386 L 451.5 389 L 449.5 386 Z " /><path fill="rgb(221,233,237)" stroke="rgb(221,233,237)" stroke-width="1" opacity="0.996078431372549" d="M 456.5 393 L 458.5 396 L 456.5 393 Z " /><path fill="rgb(221,233,237)" stroke="rgb(221,233,237)" stroke-width="1" opacity="0.996078431372549" d="M 461.5 455 L 460.5 457 L 461.5 455 Z " /><path fill="rgb(221,233,237)" stroke="rgb(221,233,237)" stroke-width="1" opacity="0.996078431372549" d="M 459.5 458 L 458.5 460 L 459.5 458 Z " /><path fill="rgb(221,233,237)" stroke="rgb(221,233,237)" stroke-width="1" opacity="0.996078431372549" d="M 453.5 465 L 452.5 467 L 453.5 465 Z " /><path fill="rgb(221,233,237)" stroke="rgb(221,233,237)" stroke-width="1" opacity="0.996078431372549" d="M 449.5 468 L 447.5 471 L 449.5 468 Z " /><path fill="rgb(221,233,237)" stroke="rgb(221,233,237)" stroke-width="1" opacity="0.996078431372549" d="M 445.5 471 L 444.5 473 L 445.5 471 Z " /><path fill="rgb(178,217,222)" stroke="rgb(178,217,222)" stroke-width="1" opacity="0.8784313725490196" d="M 428.5 213 L 437.5 223 L 428.5 213 Z " /><path fill="rgb(178,217,222)" stroke="rgb(178,217,222)" stroke-width="1" opacity="0.8784313725490196" d="M 439.5 225 L 441.5 228 L 439.5 225 Z " /><path fill="rgb(178,217,222)" stroke="rgb(178,217,222)" stroke-width="1" opacity="0.8784313725490196" d="M 442.5 229 L 443.5 231 L 442.5 229 Z " /><path fill="rgb(178,217,222)" stroke="rgb(178,217,222)" stroke-width="1" opacity="0.8784313725490196" d="M 444.5 232 L 445.5 234 L 444.5 232 Z " /><path fill="rgb(178,217,222)" stroke="rgb(178,217,222)" stroke-width="1" opacity="0.8784313725490196" d="M 446.5 235 L 447.5 237 L 446.5 235 Z " /><path fill="rgb(178,217,222)" stroke="rgb(178,217,222)" stroke-width="1" opacity="0.8784313725490196" d="M 458.5 263 L 459 265.5 L 458 265.5 L 458.5 263 Z " /><path fill="rgb(178,217,222)" stroke="rgb(178,217,222)" stroke-width="1" opacity="0.8784313725490196" d="M 459.5 268 L 460 270.5 L 459 270.5 L 459.5 268 Z " /><path fill="rgb(178,217,222)" stroke="rgb(178,217,222)" stroke-width="1" opacity="0.8784313725490196" d="M 460.5 274 L 461 278.5 L 460 278.5 L 460.5 274 Z " /><path fill="rgb(178,217,222)" stroke="rgb(178,217,222)" stroke-width="1" opacity="0.8784313725490196" d="M 463.5 281 L 468 281.5 L 463.5 282 L 463.5 281 Z " /><path fill="rgb(178,217,222)" stroke="rgb(178,217,222)" stroke-width="1" opacity="0.8784313725490196" d="M 486.5 288 L 487.5 290 L 486.5 288 Z " /><path fill="rgb(178,217,222)" stroke="rgb(178,217,222)" stroke-width="1" opacity="0.8784313725490196" d="M 489.5 290 L 490.5 292 L 489.5 290 Z " /><path fill="rgb(178,217,222)" stroke="rgb(178,217,222)" stroke-width="1" opacity="0.8784313725490196" d="M 493.5 293 L 498.5 299 L 493.5 293 Z " /><path fill="rgb(178,217,222)" stroke="rgb(178,217,222)" stroke-width="1" opacity="0.8784313725490196" d="M 501.5 302 L 502.5 304 L 501.5 302 Z " /><path fill="rgb(178,217,222)" stroke="rgb(178,217,222)" stroke-width="1" opacity="0.8784313725490196" d="M 503.5 305 L 504.5 307 L 503.5 305 Z " /><path fill="rgb(178,217,222)" stroke="rgb(178,217,222)" stroke-width="1" opacity="0.8784313725490196" d="M 510.5 320 L 511 322.5 L 510 322.5 L 510.5 320 Z " /><path fill="rgb(178,217,222)" stroke="rgb(178,217,222)" stroke-width="1" opacity="0.8784313725490196" d="M 511.5 325 L 512 328.5 L 511 328.5 L 511.5 325 Z " /><path fill="rgb(178,217,222)" stroke="rgb(178,217,222)" stroke-width="1" opacity="0.8784313725490196" d="M 511.5 339 L 512 342.5 L 511 342.5 L 511.5 339 Z " /><path fill="rgb(178,217,222)" stroke="rgb(178,217,222)" stroke-width="1" opacity="0.8784313725490196" d="M 504.5 361 L 503.5 363 L 504.5 361 Z " /><path fill="rgb(178,217,222)" stroke="rgb(178,217,222)" stroke-width="1" opacity="0.8784313725490196" d="M 502.5 364 L 500.5 367 L 502.5 364 Z " /><path fill="rgb(178,217,222)" stroke="rgb(178,217,222)" stroke-width="1" opacity="0.8784313725490196" d="M 498.5 369 L 494.5 374 L 498.5 369 Z " /><path fill="rgb(178,217,222)" stroke="rgb(178,217,222)" stroke-width="1" opacity="0.8784313725490196" d="M 491.5 375 L 489.5 378 L 491.5 375 Z " /><path fill="rgb(178,217,222)" stroke="rgb(178,217,222)" stroke-width="1" opacity="0.8784313725490196" d="M 461.5 386 L 467 386.5 L 461.5 387 L 461.5 386 Z " /><path fill="rgb(234,233,189)" stroke="rgb(234,233,189)" stroke-width="1" opacity="0.20784313725490197" d="M 315.5 33 L 316.5 35 L 315.5 33 Z " /><path fill="rgb(234,233,189)" stroke="rgb(234,233,189)" stroke-width="1" opacity="0.20784313725490197" d="M 303.5 35 L 303 36.5 L 302.5 38 L 302 36.5 L 303.5 35 Z " /><path fill="rgb(234,233,189)" stroke="rgb(234,233,189)" stroke-width="1" opacity="0.20784313725490197" d="M 216.5 56 L 219 56.5 L 216.5 57 L 216.5 56 Z " /><path fill="rgb(234,233,189)" stroke="rgb(234,233,189)" stroke-width="1" opacity="0.20784313725490197" d="M 401.5 56 L 405 56.5 L 401.5 57 L 401.5 56 Z " /><path fill="rgb(234,233,189)" stroke="rgb(234,233,189)" stroke-width="1" opacity="0.20784313725490197" d="M 213.5 57 L 210.5 61 L 213.5 57 Z " /><path fill="rgb(234,233,189)" stroke="rgb(234,233,189)" stroke-width="1" opacity="0.20784313725490197" d="M 220.5 57 L 225 60.5 L 226 62.5 L 224 61.5 L 221.5 58 L 220.5 57 Z " /><path fill="rgb(234,233,189)" stroke="rgb(234,233,189)" stroke-width="1" opacity="0.20784313725490197" d="M 398.5 57 L 400 57.5 L 396.5 60 L 398.5 57 Z " /><path fill="rgb(234,233,189)" stroke="rgb(234,233,189)" stroke-width="1" opacity="0.20784313725490197" d="M 409.5 60 L 411 63.5 L 410 63.5 L 409.5 60 Z " /><path fill="rgb(234,233,189)" stroke="rgb(234,233,189)" stroke-width="1" opacity="0.20784313725490197" d="M 395.5 61 L 394.5 63 L 395.5 61 Z " /><path fill="rgb(234,233,189)" stroke="rgb(234,233,189)" stroke-width="1" opacity="0.20784313725490197" d="M 209.5 62 L 210 66.5 L 209 66.5 L 209.5 62 Z " /><path fill="rgb(234,233,189)" stroke="rgb(234,233,189)" stroke-width="1" opacity="0.20784313725490197" d="M 226.5 64 L 229 67.5 L 227 66.5 L 226.5 64 Z " /><path fill="rgb(234,233,189)" stroke="rgb(234,233,189)" stroke-width="1" opacity="0.20784313725490197" d="M 410.5 65 L 411 67.5 L 408.5 71 L 409 69.5 L 410.5 65 Z " /><path fill="rgb(234,233,189)" stroke="rgb(234,233,189)" stroke-width="1" opacity="0.20784313725490197" d="M 392.5 66 L 392 67.5 L 390.5 70 L 391 68.5 L 392.5 66 Z " /><path fill="rgb(234,233,189)" stroke="rgb(234,233,189)" stroke-width="1" opacity="0.20784313725490197" d="M 302.5 67 L 304 69.5 L 302 68.5 L 302.5 67 Z " /><path fill="rgb(234,233,189)" stroke="rgb(234,233,189)" stroke-width="1" opacity="0.20784313725490197" d="M 316.5 70 L 315.5 72 L 316.5 70 Z " /><path fill="rgb(234,233,189)" stroke="rgb(234,233,189)" stroke-width="1" opacity="0.20784313725490197" d="M 230.5 71 L 233 74.5 L 231 73.5 L 230.5 71 Z " /><path fill="rgb(234,233,189)" stroke="rgb(234,233,189)" stroke-width="1" opacity="0.20784313725490197" d="M 304.5 71 L 307 72.5 L 305.5 72 L 304.5 71 Z " /><path fill="rgb(234,233,189)" stroke="rgb(234,233,189)" stroke-width="1" opacity="0.20784313725490197" d="M 212.5 72 L 215 75.5 L 213 74.5 L 212.5 72 Z " /><path fill="rgb(234,233,189)" stroke="rgb(234,233,189)" stroke-width="1" opacity="0.20784313725490197" d="M 388.5 73 L 388 74.5 L 386.5 77 L 387 75.5 L 388.5 73 Z " /><path fill="rgb(234,233,189)" stroke="rgb(234,233,189)" stroke-width="1" opacity="0.20784313725490197" d="M 406.5 74 L 406 75.5 L 404.5 78 L 405 76.5 L 406.5 74 Z " /><path fill="rgb(234,233,189)" stroke="rgb(234,233,189)" stroke-width="1" opacity="0.20784313725490197" d="M 234.5 78 L 237 81.5 L 235 80.5 L 234.5 78 Z " /><path fill="rgb(234,233,189)" stroke="rgb(234,233,189)" stroke-width="1" opacity="0.20784313725490197" d="M 216.5 79 L 219 82.5 L 217 81.5 L 216.5 79 Z " /><path fill="rgb(234,233,189)" stroke="rgb(234,233,189)" stroke-width="1" opacity="0.20784313725490197" d="M 384.5 80 L 384 81.5 L 382.5 85 L 382 83.5 L 384.5 80 Z " /><path fill="rgb(234,233,189)" stroke="rgb(234,233,189)" stroke-width="1" opacity="0.20784313725490197" d="M 402.5 81 L 402 82.5 L 400.5 85 L 401 83.5 L 402.5 81 Z " /><path fill="rgb(234,233,189)" stroke="rgb(234,233,189)" stroke-width="1" opacity="0.20784313725490197" d="M 138.5 86 L 141 86.5 L 138.5 87 L 138.5 86 Z " /><path fill="rgb(234,233,189)" stroke="rgb(234,233,189)" stroke-width="1" opacity="0.20784313725490197" d="M 220.5 86 L 223 89.5 L 221 88.5 L 220.5 86 Z " /><path fill="rgb(234,233,189)" stroke="rgb(234,233,189)" stroke-width="1" opacity="0.20784313725490197" d="M 398.5 88 L 398 89.5 L 394.5 94 L 397 90.5 L 398.5 88 Z " /><path fill="rgb(234,233,189)" stroke="rgb(234,233,189)" stroke-width="1" opacity="0.20784313725490197" d="M 237.5 89 L 238 90.5 L 234 93.5 L 237.5 89 Z " /><path fill="rgb(234,233,189)" stroke="rgb(234,233,189)" stroke-width="1" opacity="0.20784313725490197" d="M 223.5 91 L 225.5 94 L 223.5 91 Z " /><path fill="rgb(234,233,189)" stroke="rgb(234,233,189)" stroke-width="1" opacity="0.20784313725490197" d="M 383.5 91 L 385.5 94 L 383.5 91 Z " /><path fill="rgb(234,233,189)" stroke="rgb(234,233,189)" stroke-width="1" opacity="0.20784313725490197" d="M 227.5 94 L 233 94.5 L 227.5 95 L 227.5 94 Z " /><path fill="rgb(234,233,189)" stroke="rgb(234,233,189)" stroke-width="1" opacity="0.20784313725490197" d="M 387.5 94 L 393 94.5 L 387.5 95 L 387.5 94 Z " /><path fill="rgb(234,233,189)" stroke="rgb(234,233,189)" stroke-width="1" opacity="0.20784313725490197" d="M 106.5 97 L 105.5 99 L 106.5 97 Z " /><path fill="rgb(234,233,189)" stroke="rgb(234,233,189)" stroke-width="1" opacity="0.20784313725490197" d="M 101.5 100 L 100.5 102 L 101.5 100 Z " /><path fill="rgb(234,233,189)" stroke="rgb(234,233,189)" stroke-width="1" opacity="0.20784313725490197" d="M 97.5 103 L 96.5 105 L 97.5 103 Z " /><path fill="rgb(234,233,189)" stroke="rgb(234,233,189)" stroke-width="1" opacity="0.20784313725490197" d="M 204.5 103 L 205.5 105 L 204.5 103 Z " /><path fill="rgb(234,233,189)" stroke="rgb(234,233,189)" stroke-width="1" opacity="0.20784313725490197" d="M 93.5 106 L 83.5 117 L 93.5 106 Z " /><path fill="rgb(234,233,189)" stroke="rgb(234,233,189)" stroke-width="1" opacity="0.20784313725490197" d="M 208.5 106 L 218.5 117 L 208.5 106 Z " /><path fill="rgb(234,233,189)" stroke="rgb(234,233,189)" stroke-width="1" opacity="0.20784313725490197" d="M 301.5 106 L 307 106.5 L 301.5 107 L 301.5 106 Z " /><path fill="rgb(234,233,189)" stroke="rgb(234,233,189)" stroke-width="1" opacity="0.20784313725490197" d="M 313.5 106 L 319 106.5 L 313.5 107 L 313.5 106 Z " /><path fill="rgb(234,233,189)" stroke="rgb(234,233,189)" stroke-width="1" opacity="0.20784313725490197" d="M 81.5 119 L 79.5 122 L 81.5 119 Z " /><path fill="rgb(234,233,189)" stroke="rgb(234,233,189)" stroke-width="1" opacity="0.20784313725490197" d="M 220.5 119 L 222.5 122 L 220.5 119 Z " /><path fill="rgb(234,233,189)" stroke="rgb(234,233,189)" stroke-width="1" opacity="0.20784313725490197" d="M 370.5 122 L 371.5 124 L 370.5 122 Z " /><path fill="rgb(234,233,189)" stroke="rgb(234,233,189)" stroke-width="1" opacity="0.20784313725490197" d="M 78.5 123 L 77.5 125 L 78.5 123 Z " /><path fill="rgb(234,233,189)" stroke="rgb(234,233,189)" stroke-width="1" opacity="0.20784313725490197" d="M 223.5 123 L 224.5 125 L 223.5 123 Z " /><path fill="rgb(234,233,189)" stroke="rgb(234,233,189)" stroke-width="1" opacity="0.20784313725490197" d="M 469.5 124 L 473 124.5 L 469.5 125 L 469.5 124 Z " /><path fill="rgb(234,233,189)" stroke="rgb(234,233,189)" stroke-width="1" opacity="0.20784313725490197" d="M 466.5 125 L 465.5 127 L 463.5 128 L 464.5 126 L 466.5 125 Z " /><path fill="rgb(234,233,189)" stroke="rgb(234,233,189)" stroke-width="1" opacity="0.20784313725490197" d="M 76.5 126 L 75.5 128 L 76.5 126 Z " /><path fill="rgb(234,233,189)" stroke="rgb(234,233,189)" stroke-width="1" opacity="0.20784313725490197" d="M 379.5 128 L 380.5 130 L 379.5 128 Z " /><path fill="rgb(234,233,189)" stroke="rgb(234,233,189)" stroke-width="1" opacity="0.20784313725490197" d="M 459.5 129 L 458.5 131 L 456.5 132 L 457.5 130 L 459.5 129 Z " /><path fill="rgb(234,233,189)" stroke="rgb(234,233,189)" stroke-width="1" opacity="0.20784313725490197" d="M 478.5 130 L 479 134.5 L 478 134.5 L 478.5 130 Z " /><path fill="rgb(234,233,189)" stroke="rgb(234,233,189)" stroke-width="1" opacity="0.20784313725490197" d="M 73.5 131 L 73 132.5 L 70.5 138 L 70 136.5 L 73.5 131 Z " /><path fill="rgb(234,233,189)" stroke="rgb(234,233,189)" stroke-width="1" opacity="0.20784313725490197" d="M 236.5 131 L 235.5 133 L 236.5 131 Z " /><path fill="rgb(234,233,189)" stroke="rgb(234,233,189)" stroke-width="1" opacity="0.20784313725490197" d="M 383.5 131 L 385.5 134 L 383.5 131 Z " /><path fill="rgb(234,233,189)" stroke="rgb(234,233,189)" stroke-width="1" opacity="0.20784313725490197" d="M 452.5 133 L 451.5 135 L 449.5 136 L 450.5 134 L 452.5 133 Z " /><path fill="rgb(234,233,189)" stroke="rgb(234,233,189)" stroke-width="1" opacity="0.20784313725490197" d="M 388.5 135 L 399.5 147 L 388.5 135 Z " /><path fill="rgb(234,233,189)" stroke="rgb(234,233,189)" stroke-width="1" opacity="0.20784313725490197" d="M 445.5 137 L 444.5 139 L 445.5 137 Z " /><path fill="rgb(234,233,189)" stroke="rgb(234,233,189)" stroke-width="1" opacity="0.20784313725490197" d="M 475.5 138 L 473.5 141 L 471.5 142 L 472.5 140 L 475.5 138 Z " /><path fill="rgb(234,233,189)" stroke="rgb(234,233,189)" stroke-width="1" opacity="0.20784313725490197" d="M 467.5 143 L 466.5 145 L 464.5 146 L 465.5 144 L 467.5 143 Z " /><path fill="rgb(234,233,189)" stroke="rgb(234,233,189)" stroke-width="1" opacity="0.20784313725490197" d="M 440.5 144 L 441 146.5 L 440 146.5 L 440.5 144 Z " /><path fill="rgb(234,233,189)" stroke="rgb(234,233,189)" stroke-width="1" opacity="0.20784313725490197" d="M 460.5 147 L 459.5 149 L 457.5 150 L 458.5 148 L 460.5 147 Z " /><path fill="rgb(234,233,189)" stroke="rgb(234,233,189)" stroke-width="1" opacity="0.20784313725490197" d="M 441.5 148 L 444.5 152 L 446 152.5 L 444.5 153 L 441 149.5 L 441.5 148 Z " /><path fill="rgb(234,233,189)" stroke="rgb(234,233,189)" stroke-width="1" opacity="0.20784313725490197" d="M 402.5 150 L 404.5 153 L 402.5 150 Z " /><path fill="rgb(234,233,189)" stroke="rgb(234,233,189)" stroke-width="1" opacity="0.20784313725490197" d="M 453.5 151 L 452.5 153 L 451 152.5 L 453.5 151 Z " /><path fill="rgb(234,233,189)" stroke="rgb(234,233,189)" stroke-width="1" opacity="0.20784313725490197" d="M 64.5 153 L 65 155.5 L 64 155.5 L 64.5 153 Z " /><path fill="rgb(234,233,189)" stroke="rgb(234,233,189)" stroke-width="1" opacity="0.20784313725490197" d="M 405.5 154 L 406.5 156 L 405.5 154 Z " /><path fill="rgb(234,233,189)" stroke="rgb(234,233,189)" stroke-width="1" opacity="0.20784313725490197" d="M 63.5 158 L 64 160.5 L 63 160.5 L 63.5 158 Z " /><path fill="rgb(234,233,189)" stroke="rgb(234,233,189)" stroke-width="1" opacity="0.20784313725490197" d="M 408.5 158 L 409.5 160 L 408.5 158 Z " /><path fill="rgb(234,233,189)" stroke="rgb(234,233,189)" stroke-width="1" opacity="0.20784313725490197" d="M 62.5 165 L 63 168.5 L 62 168.5 L 62.5 165 Z " /><path fill="rgb(234,233,189)" stroke="rgb(234,233,189)" stroke-width="1" opacity="0.20784313725490197" d="M 56.5 169 L 59 169.5 L 56.5 170 L 56.5 169 Z " /><path fill="rgb(234,233,189)" stroke="rgb(234,233,189)" stroke-width="1" opacity="0.20784313725490197" d="M 45.5 172 L 47 172.5 L 40.5 176 L 41.5 174 L 45.5 172 Z " /><path fill="rgb(234,233,189)" stroke="rgb(234,233,189)" stroke-width="1" opacity="0.20784313725490197" d="M 416.5 172 L 418 174.5 L 417 174.5 L 416.5 172 Z " /><path fill="rgb(234,233,189)" stroke="rgb(234,233,189)" stroke-width="1" opacity="0.20784313725490197" d="M 38.5 176 L 37.5 178 L 31.5 183 L 36.5 177 L 38.5 176 Z " /><path fill="rgb(234,233,189)" stroke="rgb(234,233,189)" stroke-width="1" opacity="0.20784313725490197" d="M 29.5 184 L 26.5 188 L 29.5 184 Z " /><path fill="rgb(234,233,189)" stroke="rgb(234,233,189)" stroke-width="1" opacity="0.20784313725490197" d="M 25.5 189 L 24.5 191 L 25.5 189 Z " /><path fill="rgb(234,233,189)" stroke="rgb(234,233,189)" stroke-width="1" opacity="0.20784313725490197" d="M 23.5 192 L 23 193.5 L 20.5 199 L 20 197.5 L 23.5 192 Z " /><path fill="rgb(234,233,189)" stroke="rgb(234,233,189)" stroke-width="1" opacity="0.20784313725490197" d="M 17.5 208 L 18 210.5 L 17 210.5 L 17.5 208 Z " /><path fill="rgb(234,233,189)" stroke="rgb(234,233,189)" stroke-width="1" opacity="0.20784313725490197" d="M 430.5 214 L 434.5 219 L 430.5 214 Z " /><path fill="rgb(234,233,189)" stroke="rgb(234,233,189)" stroke-width="1" opacity="0.20784313725490197" d="M 467.5 217 L 470 217.5 L 467.5 218 L 467.5 217 Z " /><path fill="rgb(234,233,189)" stroke="rgb(234,233,189)" stroke-width="1" opacity="0.20784313725490197" d="M 496.5 217 L 502 219.5 L 500.5 219 L 496.5 218 L 496.5 217 Z " /><path fill="rgb(234,233,189)" stroke="rgb(234,233,189)" stroke-width="1" opacity="0.20784313725490197" d="M 465.5 218 L 463.5 221 L 465.5 218 Z " /><path fill="rgb(234,233,189)" stroke="rgb(234,233,189)" stroke-width="1" opacity="0.20784313725490197" d="M 17.5 221 L 18 223.5 L 17 223.5 L 17.5 221 Z " /><path fill="rgb(234,233,189)" stroke="rgb(234,233,189)" stroke-width="1" opacity="0.20784313725490197" d="M 438.5 223 L 440.5 226 L 438.5 223 Z " /><path fill="rgb(234,233,189)" stroke="rgb(234,233,189)" stroke-width="1" opacity="0.20784313725490197" d="M 503.5 223 L 504 227.5 L 503 227.5 L 503.5 223 Z " /><path fill="rgb(234,233,189)" stroke="rgb(234,233,189)" stroke-width="1" opacity="0.20784313725490197" d="M 462.5 227 L 464 229.5 L 462 228.5 L 462.5 227 Z " /><path fill="rgb(234,233,189)" stroke="rgb(234,233,189)" stroke-width="1" opacity="0.20784313725490197" d="M 502.5 229 L 499.5 233 L 498 232.5 L 502.5 229 Z " /><path fill="rgb(234,233,189)" stroke="rgb(234,233,189)" stroke-width="1" opacity="0.20784313725490197" d="M 444.5 231 L 445.5 233 L 444.5 231 Z " /><path fill="rgb(234,233,189)" stroke="rgb(234,233,189)" stroke-width="1" opacity="0.20784313725490197" d="M 465.5 231 L 466.5 233 L 465.5 231 Z " /><path fill="rgb(234,233,189)" stroke="rgb(234,233,189)" stroke-width="1" opacity="0.20784313725490197" d="M 23.5 240 L 24.5 242 L 23.5 240 Z " /><path fill="rgb(234,233,189)" stroke="rgb(234,233,189)" stroke-width="1" opacity="0.20784313725490197" d="M 25.5 243 L 34 252.5 L 27 246.5 L 25.5 243 Z " /><path fill="rgb(234,233,189)" stroke="rgb(234,233,189)" stroke-width="1" opacity="0.20784313725490197" d="M 35.5 253 L 37.5 256 L 35.5 253 Z " /><path fill="rgb(234,233,189)" stroke="rgb(234,233,189)" stroke-width="1" opacity="0.20784313725490197" d="M 39.5 256 L 40.5 258 L 39.5 256 Z " /><path fill="rgb(234,233,189)" stroke="rgb(234,233,189)" stroke-width="1" opacity="0.20784313725490197" d="M 30.5 262 L 28.5 265 L 24.5 268 L 27.5 264 L 30.5 262 Z " /><path fill="rgb(234,233,189)" stroke="rgb(234,233,189)" stroke-width="1" opacity="0.20784313725490197" d="M 22.5 268 L 17.5 274 L 22.5 268 Z " /><path fill="rgb(234,233,189)" stroke="rgb(234,233,189)" stroke-width="1" opacity="0.20784313725490197" d="M 15.5 276 L 12.5 280 L 15.5 276 Z " /><path fill="rgb(234,233,189)" stroke="rgb(234,233,189)" stroke-width="1" opacity="0.20784313725490197" d="M 11.5 281 L 10.5 283 L 11.5 281 Z " /><path fill="rgb(234,233,189)" stroke="rgb(234,233,189)" stroke-width="1" opacity="0.20784313725490197" d="M 8.5 286 L 8 287.5 L 5.5 293 L 5 291.5 L 8.5 286 Z " /><path fill="rgb(234,233,189)" stroke="rgb(234,233,189)" stroke-width="1" opacity="0.20784313725490197" d="M 491.5 291 L 492.5 293 L 491.5 291 Z " /><path fill="rgb(234,233,189)" stroke="rgb(234,233,189)" stroke-width="1" opacity="0.20784313725490197" d="M 499.5 299 L 501.5 302 L 499.5 299 Z " /><path fill="rgb(234,233,189)" stroke="rgb(234,233,189)" stroke-width="1" opacity="0.20784313725490197" d="M 0.5 308 L 1 310.5 L 0 310.5 L 0.5 308 Z " /><path fill="rgb(234,233,189)" stroke="rgb(234,233,189)" stroke-width="1" opacity="0.20784313725490197" d="M 0.5 328 L 1 330.5 L 0 330.5 L 0.5 328 Z " /><path fill="rgb(234,233,189)" stroke="rgb(234,233,189)" stroke-width="1" opacity="0.20784313725490197" d="M 7.5 351 L 10 354.5 L 8 353.5 L 7.5 351 Z " /><path fill="rgb(234,233,189)" stroke="rgb(234,233,189)" stroke-width="1" opacity="0.20784313725490197" d="M 10.5 356 L 11.5 358 L 10.5 356 Z " /><path fill="rgb(234,233,189)" stroke="rgb(234,233,189)" stroke-width="1" opacity="0.20784313725490197" d="M 12.5 359 L 14.5 362 L 12.5 359 Z " /><path fill="rgb(234,233,189)" stroke="rgb(234,233,189)" stroke-width="1" opacity="0.20784313725490197" d="M 15.5 363 L 23.5 372 L 15.5 363 Z " /><path fill="rgb(234,233,189)" stroke="rgb(234,233,189)" stroke-width="1" opacity="0.20784313725490197" d="M 501.5 366 L 499.5 369 L 501.5 366 Z " /><path fill="rgb(234,233,189)" stroke="rgb(234,233,189)" stroke-width="1" opacity="0.20784313725490197" d="M 25.5 372 L 27.5 375 L 25.5 372 Z " /><path fill="rgb(234,233,189)" stroke="rgb(234,233,189)" stroke-width="1" opacity="0.20784313725490197" d="M 493.5 374 L 491.5 377 L 493.5 374 Z " /><path fill="rgb(234,233,189)" stroke="rgb(234,233,189)" stroke-width="1" opacity="0.20784313725490197" d="M 29.5 375 L 30.5 377 L 29.5 375 Z " /><path fill="rgb(234,233,189)" stroke="rgb(234,233,189)" stroke-width="1" opacity="0.20784313725490197" d="M 34.5 378 L 41 381.5 L 39.5 382 Q 34.9 380.8 34.5 378 Z " /><path fill="rgb(234,233,189)" stroke="rgb(234,233,189)" stroke-width="1" opacity="0.20784313725490197" d="M 486.5 379 L 485.5 381 L 486.5 379 Z " /><path fill="rgb(234,233,189)" stroke="rgb(234,233,189)" stroke-width="1" opacity="0.20784313725490197" d="M 56.5 386 L 60 386.5 L 56.5 387 L 56.5 386 Z " /><path fill="rgb(234,233,189)" stroke="rgb(234,233,189)" stroke-width="1" opacity="0.20784313725490197" d="M 451.5 387 L 452.5 389 L 451.5 387 Z " /><path fill="rgb(234,233,189)" stroke="rgb(234,233,189)" stroke-width="1" opacity="0.20784313725490197" d="M 456.5 392 L 458.5 395 L 456.5 392 Z " /><path fill="rgb(234,233,189)" stroke="rgb(234,233,189)" stroke-width="1" opacity="0.20784313725490197" d="M 79.5 396 L 80 398.5 L 79 398.5 L 79.5 396 Z " /><path fill="rgb(234,233,189)" stroke="rgb(234,233,189)" stroke-width="1" opacity="0.20784313725490197" d="M 460.5 397 L 461.5 399 L 460.5 397 Z " /><path fill="rgb(234,233,189)" stroke="rgb(234,233,189)" stroke-width="1" opacity="0.20784313725490197" d="M 71.5 405 L 74 405.5 L 71.5 406 L 71.5 405 Z " /><path fill="rgb(234,233,189)" stroke="rgb(234,233,189)" stroke-width="1" opacity="0.20784313725490197" d="M 59.5 410 L 58.5 412 L 59.5 410 Z " /><path fill="rgb(234,233,189)" stroke="rgb(234,233,189)" stroke-width="1" opacity="0.20784313725490197" d="M 56.5 412 L 50.5 419 L 56.5 412 Z " /><path fill="rgb(234,233,189)" stroke="rgb(234,233,189)" stroke-width="1" opacity="0.20784313725490197" d="M 49.5 420 L 48.5 422 L 49.5 420 Z " /><path fill="rgb(234,233,189)" stroke="rgb(234,233,189)" stroke-width="1" opacity="0.20784313725490197" d="M 47.5 423 L 46.5 425 L 47.5 423 Z " /><path fill="rgb(234,233,189)" stroke="rgb(234,233,189)" stroke-width="1" opacity="0.20784313725490197" d="M 43.5 431 L 44 433.5 L 43 433.5 L 43.5 431 Z " /><path fill="rgb(234,233,189)" stroke="rgb(234,233,189)" stroke-width="1" opacity="0.20784313725490197" d="M 469.5 433 L 470 435.5 L 469 435.5 L 469.5 433 Z " /><path fill="rgb(234,233,189)" stroke="rgb(234,233,189)" stroke-width="1" opacity="0.20784313725490197" d="M 42.5 436 L 43 438.5 L 42 438.5 L 42.5 436 Z " /><path fill="rgb(234,233,189)" stroke="rgb(234,233,189)" stroke-width="1" opacity="0.20784313725490197" d="M 42.5 446 L 43 449.5 L 42 449.5 L 42.5 446 Z " /><path fill="rgb(234,233,189)" stroke="rgb(234,233,189)" stroke-width="1" opacity="0.20784313725490197" d="M 463.5 453 L 462.5 455 L 463.5 453 Z " /><path fill="rgb(234,233,189)" stroke="rgb(234,233,189)" stroke-width="1" opacity="0.20784313725490197" d="M 459.5 459 L 458.5 461 L 459.5 459 Z " /><path fill="rgb(234,233,189)" stroke="rgb(234,233,189)" stroke-width="1" opacity="0.20784313725490197" d="M 47.5 462 L 53 468.5 L 48 464.5 L 47.5 462 Z " /><path fill="rgb(234,233,189)" stroke="rgb(234,233,189)" stroke-width="1" opacity="0.20784313725490197" d="M 455.5 464 L 453.5 467 L 455.5 464 Z " /><path fill="rgb(234,233,189)" stroke="rgb(234,233,189)" stroke-width="1" opacity="0.20784313725490197" d="M 449.5 469 L 448.5 471 L 449.5 469 Z " /><path fill="rgb(234,233,189)" stroke="rgb(234,233,189)" stroke-width="1" opacity="0.20784313725490197" d="M 54.5 470 L 57.5 474 L 54.5 470 Z " /><path fill="rgb(234,233,189)" stroke="rgb(234,233,189)" stroke-width="1" opacity="0.20784313725490197" d="M 443.5 473 L 442.5 475 L 443.5 473 Z " /><path fill="rgb(234,233,189)" stroke="rgb(234,233,189)" stroke-width="1" opacity="0.20784313725490197" d="M 59.5 474 L 60.5 476 L 59.5 474 Z " /><path fill="rgb(234,233,189)" stroke="rgb(234,233,189)" stroke-width="1" opacity="0.20784313725490197" d="M 74.5 480 L 79 480.5 L 74.5 481 L 74.5 480 Z " /><path fill="rgb(221,233,237)" stroke="rgb(221,233,237)" stroke-width="1" opacity="1" d="M 138.5 87 L 163.5 87 L 182.5 92 Q 205.5 101.5 220 119.5 Q 226.9 126.6 230 137.5 Q 214.1 150.6 204.5 170 Q 196.3 149.2 180.5 136 Q 167.1 123.9 147.5 118 L 133.5 115 L 110.5 115 L 88.5 121 L 77.5 127 L 79 124.5 Q 85.1 113.1 95.5 106 Q 112.1 91.6 138.5 87 Z " /><path fill="rgb(221,233,237)" stroke="rgb(221,233,237)" stroke-width="1" opacity="1" d="M 152.5 187 L 156 187.5 L 152.5 188 L 152.5 187 Z " /><path fill="rgb(221,233,237)" stroke="rgb(221,233,237)" stroke-width="1" opacity="1" d="M 164.5 187 L 167 187.5 L 164.5 188 L 164.5 187 Z " /><path fill="rgb(221,233,237)" stroke="rgb(221,233,237)" stroke-width="1" opacity="1" d="M 99.5 207 L 98.5 209 L 99.5 207 Z " /><path fill="rgb(221,233,237)" stroke="rgb(221,233,237)" stroke-width="1" opacity="1" d="M 94.5 211 L 91.5 215 L 94.5 211 Z " /><path fill="rgb(221,233,237)" stroke="rgb(221,233,237)" stroke-width="1" opacity="1" d="M 83.5 223 L 81.5 226 L 83.5 223 Z " /><path fill="rgb(221,233,237)" stroke="rgb(221,233,237)" stroke-width="1" opacity="1" d="M 79.5 228 L 78.5 230 L 79.5 228 Z " /><path fill="rgb(221,233,237)" stroke="rgb(221,233,237)" stroke-width="1" opacity="1" d="M 77.5 231 L 76.5 233 L 77.5 231 Z " /><path fill="rgb(221,233,237)" stroke="rgb(221,233,237)" stroke-width="1" opacity="1" d="M 59.5 252 L 66 252.5 L 59.5 253 L 59.5 252 Z " /><path fill="rgb(221,233,237)" stroke="rgb(221,233,237)" stroke-width="1" opacity="1" d="M 53.5 253 L 56 253.5 L 53.5 254 L 53.5 253 Z " /><path fill="rgb(221,233,237)" stroke="rgb(221,233,237)" stroke-width="1" opacity="1" d="M 313.5 281 L 324.5 281 L 325.5 282 L 339.5 283 L 358.5 289 Q 380.3 298.6 395 315.5 Q 415.6 337.2 419 375 Q 438.3 375.5 449 385.5 L 451.5 389 L 456 392.5 Q 463.2 400.3 467 411.5 L 469 420.5 L 469 435.5 Q 464.6 456.6 450.5 468 Q 443 474.5 432.5 478 L 423.5 480 L 413.5 480 L 414 478.5 L 418 466.5 L 419 453.5 L 418 452.5 L 417 441.5 L 413 431.5 Q 407.8 421.8 399.5 415 L 386.5 407 L 377.5 404 L 368.5 403 L 367 401.5 L 367 393.5 L 364 380.5 L 356 361.5 Q 346.3 344.3 331.5 332 Q 316.7 319.3 295.5 313 L 280.5 310 L 255.5 310 L 248.5 312 L 256.5 303 L 279.5 289 L 298.5 283 L 312.5 282 L 313.5 281 Z M 317 296 L 313 298 L 311 303 L 312 308 L 317 311 L 331 312 L 345 316 L 358 323 L 370 334 L 373 335 L 379 333 L 381 330 L 380 323 Q 369 309 352 302 L 335 297 L 317 296 Z M 387 341 L 385 342 L 380 349 L 385 365 L 391 369 L 397 368 L 400 364 L 399 356 L 394 343 L 387 341 Z " /><path fill="rgb(221,233,237)" stroke="rgb(221,233,237)" stroke-width="1" opacity="1" d="M 243.5 316 L 242.5 318 L 243.5 316 Z " /><path fill="rgb(221,233,237)" stroke="rgb(221,233,237)" stroke-width="1" opacity="1" d="M 238.5 322 L 237.5 324 L 238.5 322 Z " /><path fill="rgb(221,233,237)" stroke="rgb(221,233,237)" stroke-width="1" opacity="1" d="M 236.5 325 L 235.5 327 L 236.5 325 Z " /><path fill="rgb(221,233,237)" stroke="rgb(221,233,237)" stroke-width="1" opacity="1" d="M 140.5 338 L 159.5 338 Q 160.8 340.3 165.5 339 L 177.5 343 L 196 353.5 L 195.5 355 L 204 362.5 Q 212.7 371.3 216 384 Q 219.5 385.7 226.5 385 L 235.5 388 Q 246.8 393.2 254 402.5 L 263 420.5 L 264 439.5 Q 260 459.5 246.5 470 L 232.5 478 L 225.5 480 L 218 480 L 228 461.5 L 229 457.5 L 229 438.5 Q 224.5 421 212.5 411 L 199.5 403 L 188.5 400 L 182.5 400 L 181 398.5 Q 175.7 382.8 164.5 373 Q 152.7 361.3 134.5 356 L 125.5 354 L 105.5 354 L 103 355.5 Q 111.9 346.9 124.5 342 L 140.5 338 Z " /><path fill="rgb(221,233,237)" stroke="rgb(221,233,237)" stroke-width="1" opacity="1" d="M 216.5 346 L 220 346.5 L 216.5 347 L 216.5 346 Z " /><path fill="rgb(221,233,237)" stroke="rgb(221,233,237)" stroke-width="1" opacity="1" d="M 96.5 362 L 93.5 366 L 96.5 362 Z " /><path fill="rgb(221,233,237)" stroke="rgb(221,233,237)" stroke-width="1" opacity="1" d="M 92.5 367 L 91.5 369 L 92.5 367 Z " /><path fill="rgb(235,242,244)" stroke="rgb(235,242,244)" stroke-width="1" opacity="0.9686274509803922" d="M 141.5 86 L 145 86.5 L 141.5 87 L 141.5 86 Z " /><path fill="rgb(235,242,244)" stroke="rgb(235,242,244)" stroke-width="1" opacity="0.9686274509803922" d="M 157.5 86 L 161 86.5 L 157.5 87 L 157.5 86 Z " /><path fill="rgb(235,242,244)" stroke="rgb(235,242,244)" stroke-width="1" opacity="0.9686274509803922" d="M 134.5 87 L 137 87.5 L 134.5 88 L 134.5 87 Z " /><path fill="rgb(235,242,244)" stroke="rgb(235,242,244)" stroke-width="1" opacity="0.9686274509803922" d="M 202.5 102 L 203.5 104 L 202.5 102 Z " /><path fill="rgb(235,242,244)" stroke="rgb(235,242,244)" stroke-width="1" opacity="0.9686274509803922" d="M 95.5 105 L 93.5 108 L 95.5 105 Z " /><path fill="rgb(235,242,244)" stroke="rgb(235,242,244)" stroke-width="1" opacity="0.9686274509803922" d="M 206.5 105 L 208.5 108 L 206.5 105 Z " /><path fill="rgb(235,242,244)" stroke="rgb(235,242,244)" stroke-width="1" opacity="0.9686274509803922" d="M 110.5 115 L 113 115.5 L 110.5 116 L 110.5 115 Z " /><path fill="rgb(235,242,244)" stroke="rgb(235,242,244)" stroke-width="1" opacity="0.9686274509803922" d="M 131.5 115 L 134 115.5 L 131.5 116 L 131.5 115 Z " /><path fill="rgb(235,242,244)" stroke="rgb(235,242,244)" stroke-width="1" opacity="0.9686274509803922" d="M 83.5 117 L 82.5 119 L 83.5 117 Z " /><path fill="rgb(235,242,244)" stroke="rgb(235,242,244)" stroke-width="1" opacity="0.9686274509803922" d="M 218.5 117 L 219.5 119 L 218.5 117 Z " /><path fill="rgb(235,242,244)" stroke="rgb(235,242,244)" stroke-width="1" opacity="0.9686274509803922" d="M 77.5 125 L 78.5 127 L 77.5 125 Z " /><path fill="rgb(235,242,244)" stroke="rgb(235,242,244)" stroke-width="1" opacity="0.9686274509803922" d="M 180.5 136 L 182.5 139 L 180.5 136 Z " /><path fill="rgb(235,242,244)" stroke="rgb(235,242,244)" stroke-width="1" opacity="0.9686274509803922" d="M 186.5 142 L 188.5 145 L 186.5 142 Z " /><path fill="rgb(235,242,244)" stroke="rgb(235,242,244)" stroke-width="1" opacity="0.9686274509803922" d="M 87.5 218 L 84.5 222 L 87.5 218 Z " /><path fill="rgb(235,242,244)" stroke="rgb(235,242,244)" stroke-width="1" opacity="0.9686274509803922" d="M 325.5 296 L 329 296.5 L 325.5 297 L 325.5 296 Z " /><path fill="rgb(235,242,244)" stroke="rgb(235,242,244)" stroke-width="1" opacity="0.9686274509803922" d="M 311.5 302 L 312 304.5 L 311 304.5 L 311.5 302 Z " /><path fill="rgb(235,242,244)" stroke="rgb(235,242,244)" stroke-width="1" opacity="0.9686274509803922" d="M 255.5 310 L 258 310.5 L 255.5 311 L 255.5 310 Z " /><path fill="rgb(235,242,244)" stroke="rgb(235,242,244)" stroke-width="1" opacity="0.9686274509803922" d="M 322.5 311 L 326 311.5 L 322.5 312 L 322.5 311 Z " /><path fill="rgb(235,242,244)" stroke="rgb(235,242,244)" stroke-width="1" opacity="0.9686274509803922" d="M 372.5 315 L 374.5 318 L 372.5 315 Z " /><path fill="rgb(235,242,244)" stroke="rgb(235,242,244)" stroke-width="1" opacity="0.9686274509803922" d="M 379.5 331 L 378.5 333 L 379.5 331 Z " /><path fill="rgb(235,242,244)" stroke="rgb(235,242,244)" stroke-width="1" opacity="0.9686274509803922" d="M 331.5 332 L 332.5 334 L 331.5 332 Z " /><path fill="rgb(235,242,244)" stroke="rgb(235,242,244)" stroke-width="1" opacity="0.9686274509803922" d="M 368.5 332 L 369.5 334 L 368.5 332 Z " /><path fill="rgb(235,242,244)" stroke="rgb(235,242,244)" stroke-width="1" opacity="0.9686274509803922" d="M 386.5 341 L 390 341.5 L 386.5 342 L 386.5 341 Z " /><path fill="rgb(235,242,244)" stroke="rgb(235,242,244)" stroke-width="1" opacity="0.9686274509803922" d="M 102.5 356 L 97.5 362 L 102.5 356 Z " /><path fill="rgb(235,242,244)" stroke="rgb(235,242,244)" stroke-width="1" opacity="0.9686274509803922" d="M 204.5 363 L 205.5 365 L 204.5 363 Z " /><path fill="rgb(235,242,244)" stroke="rgb(235,242,244)" stroke-width="1" opacity="0.9686274509803922" d="M 398.5 365 L 396.5 368 L 398.5 365 Z " /><path fill="rgb(235,242,244)" stroke="rgb(235,242,244)" stroke-width="1" opacity="0.9686274509803922" d="M 164.5 373 L 165.5 375 L 164.5 373 Z " /><path fill="rgb(235,242,244)" stroke="rgb(235,242,244)" stroke-width="1" opacity="0.9686274509803922" d="M 219.5 384 L 223 384.5 L 219.5 385 L 219.5 384 Z " /><path fill="rgb(235,242,244)" stroke="rgb(235,242,244)" stroke-width="1" opacity="0.9686274509803922" d="M 453.5 389 L 455.5 392 L 453.5 389 Z " /><path fill="rgb(235,242,244)" stroke="rgb(235,242,244)" stroke-width="1" opacity="0.9686274509803922" d="M 367.5 402 L 372 403.5 L 368.5 404 L 367.5 402 Z " /><path fill="rgb(235,242,244)" stroke="rgb(235,242,244)" stroke-width="1" opacity="0.9686274509803922" d="M 254.5 403 L 255.5 405 L 254.5 403 Z " /><path fill="rgb(235,242,244)" stroke="rgb(235,242,244)" stroke-width="1" opacity="0.9686274509803922" d="M 212.5 411 L 213.5 413 L 212.5 411 Z " /><path fill="rgb(235,242,244)" stroke="rgb(235,242,244)" stroke-width="1" opacity="0.9686274509803922" d="M 216.5 415 L 218.5 418 L 216.5 415 Z " /><path fill="rgb(235,242,244)" stroke="rgb(235,242,244)" stroke-width="1" opacity="0.9686274509803922" d="M 405.5 421 L 406.5 423 L 405.5 421 Z " /><path fill="rgb(235,242,244)" stroke="rgb(235,242,244)" stroke-width="1" opacity="0.9686274509803922" d="M 469.5 422 L 470 427.5 L 469 427.5 L 469.5 422 Z " /><path fill="rgb(235,242,244)" stroke="rgb(235,242,244)" stroke-width="1" opacity="0.9686274509803922" d="M 469.5 429 L 470 432.5 L 469 432.5 L 469.5 429 Z " /><path fill="rgb(235,242,244)" stroke="rgb(235,242,244)" stroke-width="1" opacity="0.9686274509803922" d="M 418.5 453 L 419 459.5 L 418 459.5 L 418.5 453 Z " /><path fill="rgb(235,242,244)" stroke="rgb(235,242,244)" stroke-width="1" opacity="0.9686274509803922" d="M 457.5 461 L 454.5 465 L 457.5 461 Z " /><path fill="rgb(235,242,244)" stroke="rgb(235,242,244)" stroke-width="1" opacity="0.9686274509803922" d="M 451.5 467 L 450.5 469 L 451.5 467 Z " /><path fill="rgb(235,242,244)" stroke="rgb(235,242,244)" stroke-width="1" opacity="0.9686274509803922" d="M 245.5 470 L 244.5 472 L 245.5 470 Z " /><path fill="rgb(235,242,244)" stroke="rgb(235,242,244)" stroke-width="1" opacity="0.9686274509803922" d="M 217.5 479 L 225 480.5 L 216.5 481 L 217.5 479 Z " /><path fill="rgb(235,242,244)" stroke="rgb(235,242,244)" stroke-width="1" opacity="0.9686274509803922" d="M 412.5 480 L 422 480.5 L 412.5 481 L 412.5 480 Z " /><path fill="rgb(239,245,247)" stroke="rgb(239,245,247)" stroke-width="1" opacity="0.996078431372549" d="M 113.5 115 L 130.5 115 L 150.5 119 L 167.5 127 L 184 139 L 184 141 Q 186.7 139.9 186 142.5 L 197 155.5 L 204 168.5 L 204 171.5 Q 198 180.8 196 193 L 175.5 188 L 152.5 187 L 130.5 191 L 113.5 198 Q 96.1 207.1 84 221.5 Q 72.6 234.6 65.5 252 L 58.5 252 L 40.5 257 L 28 246.5 L 19 230.5 L 17 220.5 L 17 211.5 Q 20.9 188.9 36.5 178 Q 46.7 170 63 169 L 63 161.5 L 66 148.5 L 75 128 L 89.5 121 L 101.5 117 L 112.5 116 L 113.5 115 Z " /><path fill="rgb(239,245,247)" stroke="rgb(239,245,247)" stroke-width="1" opacity="0.996078431372549" d="M 317.5 296 L 333.5 297 L 350.5 302 Q 367.4 309.1 379 321.5 L 381 328.5 L 376.5 334 L 370.5 334 Q 360.3 322.7 345.5 316 L 332.5 312 L 316.5 311 L 313 308.5 L 312 300.5 L 317.5 296 Z " /><path fill="rgb(239,245,247)" stroke="rgb(239,245,247)" stroke-width="1" opacity="0.996078431372549" d="M 258.5 310 L 278.5 310 Q 280 312.5 285.5 311 L 308.5 318 Q 329.8 327.7 344 344.5 Q 353.8 355.8 360 370.5 L 364 381.5 L 367 395.5 L 367 402.5 L 368.5 404 L 375.5 404 L 383.5 406 Q 396.4 411.1 405 420.5 Q 413.2 429.3 417 442.5 L 418 447.5 L 418 464.5 L 415 475.5 L 411.5 481 L 225 480.5 Q 244.9 475.9 255 461.5 Q 261.6 453.6 264 441.5 L 264 423.5 L 259 409.5 L 250 397 L 233.5 387 L 222.5 384 L 217.5 384 L 216 382.5 L 209 368.5 L 196 353 L 206.5 349 L 214.5 347 L 221.5 347 L 227 344.5 Q 233.9 324.9 247.5 312 L 258.5 310 Z " /><path fill="rgb(239,245,247)" stroke="rgb(239,245,247)" stroke-width="1" opacity="0.996078431372549" d="M 385.5 342 Q 393.5 340.5 395 345.5 L 400 362.5 L 395.5 368 L 391.5 369 L 386 365.5 L 381 352.5 L 381 346.5 L 383.5 343 L 385.5 342 Z " /><path fill="rgb(239,245,247)" stroke="rgb(239,245,247)" stroke-width="1" opacity="0.996078431372549" d="M 107.5 354 L 123.5 354 L 142.5 359 Q 160 366.5 171 380.5 L 182.5 400 Q 205 401.5 216 414.5 Q 223.3 421.7 227 432.5 L 229 440.5 L 229 455.5 L 224 470.5 L 215.5 481 L 79.5 481 Q 77.8 478.2 71.5 480 L 63.5 477 L 53 470 L 45 457.5 L 42 442.5 L 43 439.5 Q 44.9 421.4 56.5 413 L 69.5 406 L 79 405 Q 82.7 371.4 104.5 355 L 107.5 354 Z " /></svg>